# xmcd
#
# Track frame offsets: 
#        150
#        23910
#        42906
#        57712
#        79266
#        99994
#        118526
#        139801
#        163915
#        183334
#
# Disc length: 2709 seconds
#
# Revision: 0
# Processed by: cddbd v1.5.2PL0 Copyright (c) Steve Scherf et al.
# Submitted via: ExactAudioCopy v1.0b3
#
DISCID=870a930a
DTITLE=Tuan Vu - Tinh khuc Song Ngoc
DYEAR=1993
DGENRE=
TTITLE0=Tinh yeu don phuong
TTITLE1=Nguoi yeu oi
TTITLE2=Chuyen tinh be nho
TTITLE3=Nguoi ra vung hoa tuyen
TTITLE4=Mai Le Xuan
TTITLE5=Chuyen buon cua em
TTITLE6=Ky niem mot mua he
TTITLE7=Nguoi nu dong doi
TTITLE8=Nam muoi bay tuoi
TTITLE9=Thu cua linh
EXTD=
EXTT0=
EXTT1=
EXTT2=
EXTT3=
EXTT4=
EXTT5=
EXTT6=
EXTT7=
EXTT8=
EXTT9=
PLAYORDER=
